<svg xmlns="http://www.w3.org/2000/svg" width="584" height="602" viewBox="0 0 584 602" version="1.1"><path d="M 315.481 37.394 C 311.315 39.209, 306.292 45.202, 305.040 49.851 C 301.914 61.460, 312.118 74.989, 324 74.989 C 330.483 74.989, 339.168 69.235, 341.649 63.298 C 345.733 53.523, 340.793 40.518, 331.685 37.067 C 327.853 35.615, 319.162 35.790, 315.481 37.394 M 253.240 83.110 C 245.486 86.948, 241.205 96.197, 243.098 105.022 C 245.283 115.210, 253.312 121.933, 263.349 121.978 C 269.403 122.005, 273.966 119.887, 278.382 114.999 C 287.195 105.244, 284.461 89.025, 273.030 83.250 C 267.158 80.283, 259.067 80.226, 253.240 83.110 M 313.641 128.898 C 309.183 131.837, 307.014 135.891, 307.007 141.300 C 306.995 149.674, 311.665 155.283, 319.721 156.571 C 325.153 157.440, 332.235 154.303, 334.970 149.818 C 338.026 144.805, 337.754 137.049, 334.381 133.041 C 332.940 131.329, 330.488 129.269, 328.931 128.464 C 324.905 126.383, 317.121 126.603, 313.641 128.898 M 209.225 167.157 C 200.287 169.186, 193.994 178.806, 195.413 188.271 C 196.808 197.568, 205.342 206, 213.357 206 L 216.083 206 215.792 247.250 L 215.500 288.500 212.171 294.935 C 208.565 301.906, 199.920 315.574, 165.008 369.500 C 127.538 427.375, 93.911 479.953, 88.329 489.389 C 81.038 501.714, 78.609 509.393, 78.646 520 C 78.699 535.138, 82.436 545.208, 92.333 556.886 C 101.578 567.793, 112.528 574.556, 124.986 577.054 C 127.469 577.551, 180.800 578.214, 243.500 578.527 L 357.500 579.096 353.733 577.015 C 350.208 575.069, 343.045 566.642, 325.051 543.278 C 321.569 538.755, 318.282 535.326, 317.746 535.657 C 317.211 535.988, 313.950 540.588, 310.499 545.879 C 300.727 560.862, 295.859 564.410, 285 564.466 C 276.528 564.510, 268.837 560.480, 264.821 553.894 C 262.998 550.903, 257.976 534.492, 249.094 502.500 C 241.917 476.650, 232.720 444.025, 228.657 430 L 221.269 404.500 200.134 404.230 C 188.510 404.082, 179 403.757, 179 403.508 C 179 403.259, 188.655 388.222, 200.455 370.092 C 236.482 314.740, 241.209 306.776, 244.388 296.068 C 245.769 291.414, 246 284.014, 246 244.318 L 246 198 296.500 198 L 347 198 347.017 242.750 C 347.035 289.319, 347.554 296.369, 351.523 304.045 C 353.536 307.937, 405.448 388.926, 411.586 397.750 L 415.933 404 379.717 404.004 L 343.500 404.007 347 406.159 C 348.925 407.342, 361.525 414.371, 375 421.779 C 388.475 429.187, 401.975 436.879, 405 438.874 C 421.915 450.026, 419.530 474.474, 400.855 481.360 C 398.460 482.243, 392.900 484.245, 388.500 485.809 C 384.100 487.372, 380.376 489.294, 380.224 490.079 C 380.072 490.864, 386.040 499.554, 393.486 509.389 C 403.912 523.161, 407.388 528.526, 408.611 532.732 C 411.211 541.677, 408.793 551.073, 402.306 557.232 C 400.002 559.419, 387.552 568.559, 374.325 577.772 C 371.601 579.669, 459.637 578.403, 469.500 576.403 C 480.469 574.179, 490.255 568.843, 498.493 560.595 C 510.274 548.799, 515.160 537.741, 515.266 522.635 C 515.338 512.301, 513.552 504.552, 509.032 495.596 C 505.981 489.547, 481.797 451.322, 434.317 377.500 C 390.605 309.535, 381.637 295.366, 379.702 291.206 C 377.584 286.653, 377.503 285.207, 377.204 246.836 L 376.895 207.172 382.218 205.625 C 396.369 201.511, 402.515 184.553, 393.849 173.535 C 392.728 172.110, 389.941 169.944, 387.655 168.722 L 383.500 166.500 298.500 166.343 C 246.565 166.248, 211.837 166.564, 209.225 167.157 M 272.241 296.936 C 262.504 303.049, 262.701 317.056, 272.604 322.734 C 277.592 325.593, 282.569 325.590, 287.987 322.725 C 297.716 317.580, 298.761 304.239, 289.929 297.949 C 285.275 294.636, 276.688 294.144, 272.241 296.936 M 313.704 336.478 C 305.337 338.634, 299.982 345.748, 300.022 354.651 C 300.119 376.060, 327.400 382.641, 337.216 363.624 C 341.786 354.771, 338.439 343.614, 329.723 338.646 C 324.302 335.556, 319.698 334.933, 313.704 336.478 M 232.882 369.882 C 229.486 373.279, 229 374.346, 229 378.416 C 229 381.393, 233.303 397.903, 240.954 424.283 C 247.529 446.953, 256.295 477.650, 260.433 492.500 C 274.193 541.875, 275.600 546.259, 278.482 548.738 C 281.527 551.357, 285.851 551.646, 289.989 549.506 C 291.865 548.535, 297.163 541.703, 305.106 530.006 C 311.832 520.103, 317.597 512.028, 317.917 512.062 C 318.238 512.096, 327.206 523.364, 337.847 537.102 C 348.488 550.841, 358.330 562.825, 359.719 563.735 C 364.717 567.010, 368.054 565.855, 381.228 556.288 C 391.647 548.723, 393.712 546.773, 394.905 543.375 C 395.715 541.068, 396.021 538.219, 395.627 536.652 C 395.252 535.155, 388.095 524.917, 379.722 513.899 C 356.864 483.820, 358.431 486.133, 359.612 484.201 C 360.184 483.266, 366.468 480.198, 373.576 477.384 C 380.684 474.570, 389.541 471.046, 393.259 469.552 C 397.019 468.040, 400.502 465.931, 401.109 464.797 C 402.649 461.918, 402.463 456.355, 400.738 453.727 C 399.933 452.502, 389.426 445.915, 377.388 439.089 C 365.349 432.263, 349.200 423.082, 341.500 418.686 C 333.800 414.291, 309.064 400.639, 286.530 388.348 C 239.545 362.719, 239.918 362.847, 232.882 369.882" stroke="none" fill="#f1f1f1" fill-rule="evenodd"/></svg>