<svg xmlns="http://www.w3.org/2000/svg" width="16" height="16" viewBox="0 0 500 500">
  <!-- 외곽 테두리 -->
  <rect x="5" y="5" width="490" height="490" fill="none" stroke="black" stroke-width="10"/>

  <!-- 대각선 선들 -->
  <g stroke="black" stroke-width="2">
    <!-- 왼쪽 경계에서 위쪽 모서리로 -->
    <line x1="5" y1="5.0"     x2="495" y2="5"   />
    <line x1="5" y1="21.897"  x2="495" y2="5"   />
    <line x1="5" y1="38.793"  x2="495" y2="5"   />
    <line x1="5" y1="55.69"   x2="495" y2="5"   />
    <line x1="5" y1="72.586"  x2="495" y2="5"   />
    <line x1="5" y1="89.483"  x2="495" y2="5"   />
    <line x1="5" y1="106.379" x2="495" y2="5"   />
    <line x1="5" y1="123.276" x2="495" y2="5"   />
    <line x1="5" y1="140.172" x2="495" y2="5"   />
    <line x1="5" y1="157.069" x2="495" y2="5"   />
    <line x1="5" y1="173.966" x2="495" y2="5"   />
    <line x1="5" y1="190.862" x2="495" y2="5"   />
    <line x1="5" y1="207.759" x2="495" y2="5"   />
    <line x1="5" y1="224.655" x2="495" y2="5"   />
    <line x1="5" y1="241.552" x2="495" y2="5"   />
    <line x1="5" y1="258.448" x2="495" y2="5"   />
    <line x1="5" y1="275.345" x2="495" y2="5"   />
    <line x1="5" y1="292.241" x2="495" y2="5"   />
    <line x1="5" y1="309.138" x2="495" y2="5"   />
    <line x1="5" y1="326.034" x2="495" y2="5"   />
    <line x1="5" y1="342.931" x2="495" y2="5"   />
    <line x1="5" y1="359.828" x2="495" y2="5"   />
    <line x1="5" y1="376.724" x2="495" y2="5"   />
    <line x1="5" y1="393.621" x2="495" y2="5"   />
    <line x1="5" y1="410.517" x2="495" y2="5"   />
    <line x1="5" y1="427.414" x2="495" y2="5"   />
    <line x1="5" y1="444.31"  x2="495" y2="5"   />
    <line x1="5" y1="461.207" x2="495" y2="5"   />
    <line x1="5" y1="478.103" x2="495" y2="5"   />
    <line x1="5" y1="495.0"   x2="495" y2="5"   />

    <!-- 왼쪽 경계에서 아래쪽 모서리로 -->
    <line x1="5" y1="5.0"     x2="495" y2="495" />
    <line x1="5" y1="21.897"  x2="495" y2="495" />
    <line x1="5" y1="38.793"  x2="495" y2="495" />
    <line x1="5" y1="55.69"   x2="495" y2="495" />
    <line x1="5" y1="72.586"  x2="495" y2="495" />
    <line x1="5" y1="89.483"  x2="495" y2="495" />
    <line x1="5" y1="106.379" x2="495" y2="495" />
    <line x1="5" y1="123.276" x2="495" y2="495" />
    <line x1="5" y1="140.172" x2="495" y2="495" />
    <line x1="5" y1="157.069" x2="495" y2="495" />
    <line x1="5" y1="173.966" x2="495" y2="495" />
    <line x1="5" y1="190.862" x2="495" y2="495" />
    <line x1="5" y1="207.759" x2="495" y2="495" />
    <line x1="5" y1="224.655" x2="495" y2="495" />
    <line x1="5" y1="241.552" x2="495" y2="495" />
    <line x1="5" y1="258.448" x2="495" y2="495" />
    <line x1="5" y1="275.345" x2="495" y2="495" />
    <line x1="5" y1="292.241" x2="495" y2="495" />
    <line x1="5" y1="309.138" x2="495" y2="495" />
    <line x1="5" y1="326.034" x2="495" y2="495" />
    <line x1="5" y1="342.931" x2="495" y2="495" />
    <line x1="5" y1="359.828" x2="495" y2="495" />
    <line x1="5" y1="376.724" x2="495" y2="495" />
    <line x1="5" y1="393.621" x2="495" y2="495" />
    <line x1="5" y1="410.517" x2="495" y2="495" />
    <line x1="5" y1="427.414" x2="495" y2="495" />
    <line x1="5" y1="444.31"  x2="495" y2="495" />
    <line x1="5" y1="461.207" x2="495" y2="495" />
    <line x1="5" y1="478.103" x2="495" y2="495" />
    <line x1="5" y1="495.0"   x2="495" y2="495" />
  </g>
</svg>
